<?xml version="1.0" encoding="utf-8"?>
<!-- Generator: Adobe Illustrator 24.2.3, SVG Export Plug-In . SVG Version: 6.00 Build 0)  -->
<svg version="1.1" id="Layer_1" xmlns="http://www.w3.org/2000/svg" xmlns:xlink="http://www.w3.org/1999/xlink" x="0px" y="0px"
	 viewBox="0 0 204.6 58.6" style="enable-background:new 0 0 204.6 58.6;" xml:space="preserve">
<style type="text/css">
	.st0{fill:#FFFFFF;}
</style>
<g>
	<ellipse class="st0" cx="58.3" cy="28.6" rx="24.4" ry="24.4"/>
	<circle class="st0" cx="10.2" cy="16.1" r="6"/>
	<rect x="104.6" y="4.3" class="st0" width="7.8" height="48.8"/>
	<circle class="st0" cx="95.3" cy="16.1" r="6"/>
	<g>
		<path class="st0" d="M121.3,18h-1.1V5.2h5c1.1,0,1.9,0.3,2.5,0.9c0.6,0.6,0.9,1.5,0.9,2.6c0,1-0.2,1.8-0.7,2.4
			c-0.5,0.6-1.2,1-2.1,1.1l3.2,5.7h-1.2l-3.1-5.7h-3.4L121.3,18L121.3,18z M125.2,11.4c0.7,0,1.3-0.2,1.7-0.6s0.6-0.9,0.6-1.6V8.4
			c0-0.6-0.2-1.1-0.6-1.6c-0.4-0.4-0.9-0.6-1.7-0.6h-3.9v5.2H125.2z"/>
		<path class="st0" d="M131.8,18V5.2h7.5v1h-6.4V11h6.1v1h-6.1v5h6.4v1H131.8z"/>
		<path class="st0" d="M152.3,6.7L152.3,6.7l-4.5,7.8l-4.4-7.8h-0.1V18h-1.1V5.3h1.5l4,7.2h0.1l4-7.2h1.4V18h-1.1L152.3,6.7
			L152.3,6.7z"/>
		<path class="st0" d="M161.6,18.2c-1.6,0-2.9-0.6-3.8-1.7c-0.9-1.1-1.4-2.8-1.4-4.9s0.5-3.8,1.4-4.9c0.9-1.1,2.2-1.7,3.8-1.7
			c1.6,0,2.9,0.6,3.8,1.7s1.4,2.8,1.4,4.9c0,2.2-0.5,3.8-1.4,4.9C164.5,17.7,163.2,18.2,161.6,18.2z M161.6,17.3
			c0.6,0,1.2-0.1,1.7-0.3c0.5-0.2,0.9-0.5,1.3-0.9c0.3-0.4,0.6-0.9,0.8-1.5s0.3-1.3,0.3-2v-1.6c0-0.8-0.1-1.4-0.3-2
			c-0.2-0.6-0.5-1.1-0.8-1.5c-0.4-0.4-0.8-0.7-1.3-0.9c-0.5-0.2-1.1-0.3-1.7-0.3s-1.2,0.1-1.7,0.3s-0.9,0.5-1.3,0.9
			c-0.3,0.4-0.6,0.9-0.8,1.5c-0.2,0.6-0.3,1.3-0.3,2v1.6c0,0.8,0.1,1.4,0.3,2s0.5,1.1,0.8,1.5c0.4,0.4,0.8,0.7,1.3,0.9
			C160.4,17.2,161,17.3,161.6,17.3z"/>
		<path class="st0" d="M173.4,6.2V18h-1.1V6.2H168v-1h9.7v1H173.4z"/>
		<path class="st0" d="M179.8,18V5.2h7.5v1h-6.4V11h6.1v1h-6.1v5h6.4v1H179.8z"/>
	</g>
	<g>
		<path class="st0" d="M124.1,36.9c-1.1,0-1.9-0.2-2.6-0.6c-0.7-0.4-1.3-0.9-1.8-1.6l0.8-0.7c0.4,0.6,1,1.1,1.5,1.4
			c0.6,0.3,1.3,0.5,2.1,0.5c1,0,1.8-0.2,2.3-0.7s0.8-1.1,0.8-2c0-0.8-0.2-1.4-0.7-1.7s-1.1-0.6-1.9-0.8l-1.1-0.2
			c-1.2-0.2-2.1-0.6-2.6-1.2c-0.6-0.6-0.8-1.3-0.8-2.2c0-0.6,0.1-1.1,0.3-1.5c0.2-0.4,0.5-0.8,0.8-1.1s0.8-0.5,1.3-0.6
			c0.5-0.1,1.1-0.2,1.7-0.2c0.9,0,1.8,0.2,2.4,0.5s1.2,0.8,1.6,1.4l-0.8,0.6c-0.4-0.5-0.8-0.9-1.3-1.2c-0.5-0.3-1.2-0.4-1.9-0.4
			c-0.9,0-1.6,0.2-2.2,0.6c-0.5,0.4-0.8,1-0.8,1.8c0,0.8,0.2,1.3,0.7,1.7c0.5,0.4,1.1,0.6,1.9,0.8l1.1,0.2c1.3,0.3,2.2,0.7,2.7,1.3
			s0.8,1.3,0.8,2.2c0,1.2-0.4,2.1-1.1,2.7C126.4,36.6,125.4,36.9,124.1,36.9z"/>
		<path class="st0" d="M131.8,36.7V23.9h7.5v1h-6.4v4.8h6.1v1h-6.1v5h6.4v1H131.8z"/>
		<path class="st0" d="M151,36.7l-1.4-4h-5.4l-1.4,4h-1.1l4.5-12.8h1.4l4.5,12.8H151z M147,24.9L147,24.9l-2.5,6.8h4.9L147,24.9z"/>
		<path class="st0" d="M158.6,36.9c-1.1,0-1.9-0.2-2.6-0.6c-0.7-0.4-1.3-0.9-1.8-1.6L155,34c0.4,0.6,1,1.1,1.5,1.4
			c0.6,0.3,1.3,0.5,2.1,0.5c1,0,1.8-0.2,2.3-0.7s0.8-1.1,0.8-2c0-0.8-0.2-1.4-0.7-1.7s-1.1-0.6-1.9-0.8l-1.1-0.2
			c-1.2-0.2-2.1-0.6-2.7-1.2c-0.6-0.6-0.8-1.3-0.8-2.2c0-0.6,0.1-1.1,0.3-1.5s0.5-0.8,0.8-1.1s0.8-0.5,1.3-0.6
			c0.5-0.1,1.1-0.2,1.7-0.2c0.9,0,1.8,0.2,2.4,0.5c0.7,0.3,1.2,0.8,1.6,1.4l-0.8,0.6c-0.3-0.5-0.8-0.9-1.3-1.2
			c-0.5-0.3-1.2-0.4-1.9-0.4c-0.9,0-1.6,0.2-2.2,0.6c-0.5,0.4-0.8,1-0.8,1.8c0,0.8,0.2,1.3,0.7,1.7c0.5,0.4,1.1,0.6,1.9,0.8l1.1,0.2
			c1.3,0.3,2.2,0.7,2.7,1.3s0.8,1.3,0.8,2.2c0,1.2-0.4,2.1-1.1,2.7C160.9,36.6,159.9,36.9,158.6,36.9z"/>
		<path class="st0" d="M170.9,36.9c-1.6,0-2.9-0.6-3.8-1.7c-0.9-1.1-1.4-2.8-1.4-4.9s0.5-3.8,1.4-4.9c0.9-1.1,2.2-1.7,3.8-1.7
			c1.6,0,2.9,0.6,3.8,1.7c0.9,1.1,1.4,2.8,1.4,4.9s-0.5,3.8-1.4,4.9C173.8,36.3,172.5,36.9,170.9,36.9z M170.9,35.9
			c0.6,0,1.2-0.1,1.7-0.3c0.5-0.2,0.9-0.5,1.3-0.9c0.4-0.4,0.6-0.9,0.8-1.5s0.3-1.3,0.3-2v-1.6c0-0.8-0.1-1.4-0.3-2
			c-0.2-0.6-0.5-1.1-0.8-1.5c-0.3-0.4-0.8-0.7-1.3-0.9c-0.5-0.2-1.1-0.3-1.7-0.3s-1.2,0.1-1.7,0.3s-0.9,0.5-1.3,0.9
			c-0.4,0.4-0.6,0.9-0.8,1.5c-0.2,0.6-0.3,1.3-0.3,2v1.6c0,0.8,0.1,1.4,0.3,2c0.2,0.6,0.5,1.1,0.8,1.5c0.3,0.4,0.8,0.7,1.3,0.9
			S170.3,35.9,170.9,35.9z"/>
		<path class="st0" d="M180.9,25.4L180.9,25.4l-0.1,11.3h-1.1V23.9h1.4l6.7,11.3h0.1V23.9h1.1v12.8h-1.4L180.9,25.4z"/>
		<path class="st0" d="M196.8,36.9c-1.1,0-1.9-0.2-2.6-0.6c-0.7-0.4-1.3-0.9-1.8-1.6l0.8-0.7c0.4,0.6,1,1.1,1.5,1.4
			c0.6,0.3,1.3,0.5,2.1,0.5c1,0,1.8-0.2,2.3-0.7s0.8-1.1,0.8-2c0-0.8-0.2-1.4-0.7-1.7s-1.1-0.6-1.9-0.8l-1.1-0.2
			c-1.2-0.2-2.1-0.6-2.6-1.2c-0.6-0.6-0.8-1.3-0.8-2.2c0-0.6,0.1-1.1,0.3-1.5s0.5-0.8,0.8-1.1s0.8-0.5,1.3-0.6
			c0.5-0.1,1.1-0.2,1.7-0.2c0.9,0,1.8,0.2,2.4,0.5s1.2,0.8,1.6,1.4l-0.8,0.6c-0.4-0.5-0.8-0.9-1.3-1.2c-0.5-0.3-1.2-0.4-1.9-0.4
			c-0.9,0-1.6,0.2-2.2,0.6c-0.5,0.4-0.8,1-0.8,1.8c0,0.8,0.2,1.3,0.7,1.7c0.5,0.4,1.1,0.6,1.9,0.8l1.1,0.2c1.3,0.3,2.2,0.7,2.7,1.3
			c0.5,0.6,0.8,1.3,0.8,2.2c0,1.2-0.4,2.1-1.1,2.7C199.1,36.6,198.1,36.9,196.8,36.9z"/>
	</g>
	<g>
		<g>
			<path class="st0" d="M120.7,52.1h-0.6v-3.8h1.6c0.3,0,0.6,0.1,0.8,0.3c0.2,0.2,0.3,0.5,0.3,0.8c0,0.3-0.1,0.5-0.2,0.7
				s-0.3,0.3-0.6,0.4l0.8,1.6h-0.7l-0.8-1.5h-0.8L120.7,52.1L120.7,52.1z M121.7,50c0.1,0,0.3,0,0.4-0.1c0.1-0.1,0.1-0.2,0.1-0.4
				v-0.3c0-0.1,0-0.3-0.1-0.4c-0.1-0.1-0.2-0.1-0.4-0.1h-1V50H121.7z"/>
			<path class="st0" d="M126.7,52.1v-3.8h2.4v0.5h-1.8v1.1h1.6v0.5h-1.6v1.1h1.8v0.5L126.7,52.1L126.7,52.1z"/>
			<path class="st0" d="M133.7,51.7v-1.1h-1v-0.5h1v-1.1h0.5v1.1h1v0.5h-1v1.1H133.7z"/>
			<path class="st0" d="M139.1,52.1v-3.8h2.4v0.5h-1.8v1.1h1.6v0.5h-1.6v1.1h1.8v0.5L139.1,52.1L139.1,52.1z"/>
			<path class="st0" d="M148.2,49.2L148.2,49.2l-0.3,0.6l-0.8,1.5l-0.8-1.5l-0.3-0.6h0v2.9h-0.6v-3.8h0.7l1,1.9h0l1-1.9h0.7v3.8
				h-0.6L148.2,49.2L148.2,49.2z"/>
			<path class="st0" d="M152.7,48.3h1.7c0.3,0,0.6,0.1,0.7,0.3c0.2,0.2,0.3,0.4,0.3,0.7c0,0.1,0,0.3-0.1,0.4c0,0.1-0.1,0.2-0.2,0.2
				c-0.1,0.1-0.1,0.1-0.2,0.1s-0.2,0.1-0.2,0.1v0c0.1,0,0.2,0,0.2,0.1s0.2,0.1,0.3,0.1c0.1,0.1,0.1,0.2,0.2,0.3s0.1,0.2,0.1,0.4
				c0,0.1,0,0.3-0.1,0.4c-0.1,0.1-0.1,0.2-0.2,0.4c-0.1,0.1-0.2,0.2-0.3,0.2s-0.2,0.1-0.4,0.1h-1.8L152.7,48.3L152.7,48.3z
				 M153.3,49.9h0.9c0.1,0,0.3,0,0.3-0.1s0.1-0.2,0.1-0.3v-0.2c0-0.1,0-0.3-0.1-0.3c-0.1-0.1-0.2-0.1-0.3-0.1h-0.9V49.9z
				 M153.3,51.5h1.1c0.2,0,0.3,0,0.4-0.1s0.1-0.2,0.1-0.4v-0.2c0-0.1-0.1-0.3-0.1-0.4c-0.1-0.1-0.2-0.1-0.4-0.1h-1.1V51.5z"/>
			<path class="st0" d="M160.7,52.1c-0.2,0-0.5,0-0.7-0.1c-0.2-0.1-0.4-0.2-0.5-0.4c-0.1-0.2-0.2-0.4-0.3-0.6s-0.1-0.5-0.1-0.8
				c0-0.3,0-0.6,0.1-0.8c0.1-0.2,0.2-0.4,0.3-0.6s0.3-0.3,0.5-0.4s0.4-0.1,0.7-0.1s0.5,0,0.7,0.1c0.2,0.1,0.4,0.2,0.5,0.4
				c0.1,0.2,0.2,0.4,0.3,0.6s0.1,0.5,0.1,0.8c0,0.3,0,0.6-0.1,0.8c-0.1,0.2-0.2,0.4-0.3,0.6s-0.3,0.3-0.5,0.4
				C161.1,52.1,160.9,52.1,160.7,52.1z M160.7,51.6c0.1,0,0.3,0,0.4-0.1c0.1-0.1,0.2-0.1,0.3-0.2s0.1-0.2,0.2-0.4s0.1-0.3,0.1-0.5
				v-0.6c0-0.2,0-0.3-0.1-0.5s-0.1-0.2-0.2-0.4c-0.1-0.1-0.2-0.2-0.3-0.2c-0.1-0.1-0.2-0.1-0.4-0.1c-0.1,0-0.3,0-0.4,0.1
				c-0.1,0.1-0.2,0.1-0.3,0.2c-0.1,0.1-0.2,0.2-0.2,0.4c-0.1,0.1-0.1,0.3-0.1,0.5v0.6c0,0.2,0,0.3,0.1,0.5s0.1,0.2,0.2,0.4
				s0.2,0.2,0.3,0.2C160.4,51.6,160.5,51.6,160.7,51.6z"/>
			<path class="st0" d="M166.1,48.3h1.3c0.2,0,0.5,0,0.7,0.1c0.2,0.1,0.4,0.2,0.5,0.4c0.1,0.2,0.2,0.4,0.3,0.6
				c0.1,0.2,0.1,0.5,0.1,0.8s0,0.6-0.1,0.8c-0.1,0.2-0.2,0.4-0.3,0.6s-0.3,0.3-0.5,0.4c-0.2,0.1-0.4,0.1-0.7,0.1h-1.3V48.3z
				 M167.4,51.5c0.3,0,0.5-0.1,0.7-0.3c0.2-0.2,0.3-0.4,0.3-0.8v-0.6c0-0.3-0.1-0.6-0.3-0.8s-0.4-0.3-0.7-0.3h-0.7v2.7L167.4,51.5
				L167.4,51.5z"/>
			<path class="st0" d="M172.6,52.1v-0.5h0.5v-2.8h-0.5v-0.5h1.6v0.5h-0.5v2.8h0.5v0.5H172.6z"/>
			<path class="st0" d="M180.9,49.2L180.9,49.2l-0.3,0.6l-0.8,1.5l-0.8-1.5l-0.3-0.6h0v2.9H178v-3.8h0.7l1,1.9h0.1l1-1.9h0.7v3.8
				h-0.6V49.2z"/>
			<path class="st0" d="M185.4,52.1v-3.8h2.4v0.5H186v1.1h1.6v0.5H186v1.1h1.8v0.5L185.4,52.1L185.4,52.1z"/>
			<path class="st0" d="M192.6,50l-0.4-0.8h0v2.9h-0.6v-3.8h0.7l1.2,2.1l0.4,0.8h0v-2.9h0.6v3.8h-0.7L192.6,50z"/>
			<path class="st0" d="M199.8,48.8v3.2h-0.6v-3.2h-1.1v-0.5h2.9v0.5H199.8z"/>
		</g>
	</g>
	<rect x="120.2" y="42.4" class="st0" width="80.8" height="0.1"/>
	<g>
		<rect x="19.4" y="4.3" class="st0" width="1.7" height="48.8"/>
		<rect x="25.5" y="4.3" class="st0" width="1.7" height="48.8"/>
	</g>
</g>
</svg>
